<svg width="120" height="120" viewBox="0 0 120 120" fill="none" xmlns="http://www.w3.org/2000/svg">
<path d="M104.481 32.1975L61.49 7.37534C60.5902 6.87489 59.3904 6.87489 58.4906 7.37534L15.4997 32.1975C14.5999 32.798 14 33.7989 14 34.7998V84.5442C14 85.6452 14.5999 86.6461 15.4997 87.1466L58.4906 111.969C58.9905 112.269 59.4904 112.369 59.9903 112.369C60.4902 112.369 60.9901 112.269 61.49 111.969L104.481 87.1466C105.381 86.6461 105.981 85.6452 105.981 84.5442V34.7998C105.981 33.7989 105.381 32.798 104.481 32.1975ZM59.0905 74.4352L53.3917 71.1323V63.6256L32.996 51.815V74.5353L53.2917 86.3458V82.042V79.3396L54.2915 79.9401L59.0905 82.7426V91.3503C59.0905 91.5505 59.0905 91.8508 58.9905 92.0509C58.9905 92.151 58.9905 92.151 58.8905 92.2511C58.7906 92.4513 58.7906 92.5514 58.6906 92.7516C58.6906 92.8516 58.5906 92.8516 58.5906 92.9517C58.4906 93.1519 58.3907 93.3521 58.1907 93.4522C57.9907 93.6524 57.8908 93.7525 57.6908 93.8525C57.5908 93.8525 57.5908 93.9526 57.4908 93.9526C57.3909 93.9526 57.1909 94.0527 56.9909 94.0527C56.891 94.0527 56.891 94.0527 56.791 94.1528C56.591 94.2529 56.3911 94.2529 56.0911 94.2529C55.8912 94.2529 55.5912 94.2529 55.3913 94.1528C55.2913 94.1528 55.2913 94.1528 55.1913 94.0527C54.9914 93.9526 54.8914 93.9526 54.6914 93.8525H54.5914L28.5969 78.639C27.6971 78.1385 27.1972 77.1376 27.1972 76.1367V46.8105C27.1972 45.8096 27.6971 44.8088 28.5969 44.3083C29.4967 43.8079 30.5965 43.8079 31.4963 44.3083L57.4908 59.5219C58.3907 60.0223 58.8905 61.0232 58.8905 62.0241V74.4352H59.0905Z" fill="#663FBD"/>
</svg>
